<svg width="60" height="60" viewBox="0 0 60 60" fill="none" xmlns="http://www.w3.org/2000/svg">
<g clip-path="url(#clip0)">
<path d="M58.6951 57.4163H4.46283L23.7495 38.1035L32.2053 46.5594C32.3321 46.6843 32.4831 46.782 32.649 46.8465C32.9667 46.977 33.323 46.977 33.6407 46.8465C33.8067 46.782 33.9576 46.6843 34.0844 46.5594L56.8421 23.7495V32.1792C56.8421 32.5253 56.9796 32.8572 57.2243 33.1019C57.4691 33.3466 57.801 33.4841 58.1471 33.4841C58.4931 33.4841 58.825 33.3466 59.0698 33.1019C59.3145 32.8572 59.452 32.5253 59.452 32.1792V20.5916C59.452 20.2455 59.3145 19.9136 59.0698 19.6688C58.825 19.4241 58.4931 19.2866 58.1471 19.2866H46.5855C46.2394 19.2866 45.9075 19.4241 45.6628 19.6688C45.4181 19.9136 45.2806 20.2455 45.2806 20.5916C45.2806 20.9376 45.4181 21.2696 45.6628 21.5143C45.9075 21.759 46.2394 21.8965 46.5855 21.8965H55.0153L33.1188 43.793L24.6629 35.3371C24.5416 35.2148 24.3973 35.1177 24.2383 35.0515C24.0793 34.9852 23.9087 34.9511 23.7364 34.9511C23.5642 34.9511 23.3936 34.9852 23.2346 35.0515C23.0756 35.1177 22.9312 35.2148 22.8099 35.3371L2.60985 55.5633V1.30492C2.60985 0.95883 2.47237 0.62692 2.22765 0.382201C1.98293 0.137482 1.65102 0 1.30494 0C0.958854 0 0.626944 0.137482 0.382224 0.382201C0.137505 0.62692 2.35759e-05 0.95883 2.35759e-05 1.30492V58.7212C-0.00202185 59.0617 0.129099 59.3895 0.3654 59.6346C0.487511 59.7464 0.629032 59.8348 0.782973 59.8956C0.946264 59.9742 1.12388 60.0186 1.30494 60.0261H58.7212C59.0673 60.0261 59.3992 59.8886 59.6439 59.6439C59.8886 59.3992 60.0261 59.0673 60.0261 58.7212C60.0261 58.3751 59.8886 58.0432 59.6439 57.7985C59.3992 57.5537 59.0673 57.4163 58.7212 57.4163H58.6951Z" fill="white"/>
</g>
<defs>
<clipPath id="clip0">
<rect width="60" height="60" fill="white"/>
</clipPath>
</defs>
</svg>
