<svg width="60" height="60" viewBox="0 0 60 60" fill="none" xmlns="http://www.w3.org/2000/svg">
<path d="M59.5312 15C59.25 14.8125 58.875 14.7187 58.5938 14.9062L39.4688 21.75L26.0625 16.875C26.8125 15 27.1875 13.3125 27.1875 11.9062C27.1875 9.375 26.25 7.125 24.4688 5.34375C22.6875 3.5625 20.3438 2.625 17.9062 2.625C12.75 2.625 8.625 6.75 8.625 11.9062C8.625 13.6875 9.28125 15.8438 10.4062 18.4688L0.65625 21.75C0.28125 21.9375 0 22.3125 0 22.6875V56.4375C0 56.8125 0.1875 57.0938 0.46875 57.2812C0.65625 57.375 0.84375 57.4688 1.03125 57.4688C1.125 57.4688 1.3125 57.4688 1.40625 57.375L20.5312 50.625L39.0938 57.4688C39.2812 57.5625 39.5625 57.5625 39.75 57.4688L59.25 50.5313C59.625 50.3438 59.9062 49.9688 59.9062 49.5938V15.8437C60 15.4687 59.8125 15.1875 59.5312 15ZM17.9062 4.5C19.875 4.5 21.6562 5.25 22.9688 6.65625C24.375 7.96875 25.125 9.84375 25.125 11.7188C25.125 13.0312 24.6562 14.8125 23.7188 16.875C22.0312 20.625 19.2188 24.5625 17.9062 26.3438C17.7188 26.1563 17.625 25.9688 17.4375 25.6875C16.2188 24 14.25 21.1875 12.8438 18.2813C11.4375 15.5625 10.7812 13.3125 10.7812 11.625C10.6875 7.78125 13.9688 4.5 17.9062 4.5ZM57.9375 48.8438L39.4688 55.4062L20.9062 48.5625C20.8125 48.5625 20.625 48.4688 20.5312 48.4688C20.4375 48.4688 20.25 48.4688 20.1562 48.5625L2.0625 55.0312V23.4375L11.4375 20.1562C11.4375 20.1562 11.4375 20.1563 11.4375 20.25C11.5312 20.3438 11.5312 20.4375 11.625 20.5312C11.7188 20.7188 11.8125 20.9062 11.9062 21.0938C12 21.1875 12 21.2812 12.0938 21.375C12.1875 21.5625 12.2812 21.75 12.375 21.9375C12.4688 22.0312 12.4688 22.125 12.5625 22.2188C12.6562 22.4063 12.75 22.5938 12.8438 22.6875C12.9375 22.7813 12.9375 22.875 13.0312 22.9688C13.125 23.1562 13.2188 23.25 13.3125 23.4375C13.4062 23.5312 13.4062 23.625 13.5 23.7188C13.5938 23.9062 13.6875 24 13.7812 24.1875C13.875 24.2812 13.875 24.375 13.9688 24.4688C14.0625 24.6563 14.1562 24.75 14.25 24.9375C14.3438 25.0313 14.3438 25.125 14.4375 25.2188C14.5312 25.4062 14.625 25.5 14.7188 25.6875C14.8125 25.7812 14.8125 25.875 14.9062 25.875C15 26.0625 15.0938 26.1562 15.1875 26.25C15.1875 26.3438 15.2812 26.3438 15.2812 26.4375C15.375 26.625 15.4688 26.7188 15.5625 26.8125L15.6563 26.9063C15.75 27 15.8438 27.1875 15.9375 27.2813L16.0312 27.375C16.125 27.4688 16.2188 27.6563 16.3125 27.75C16.4062 27.8438 16.5 27.9375 16.5938 28.0312C16.7812 28.3125 16.9688 28.5 16.9688 28.5938C17.1562 28.875 17.4375 28.9688 17.8125 28.9688C18.0938 28.9688 18.375 28.7812 18.6562 28.5938C18.6562 28.5938 18.75 28.5 18.9375 28.3125L19.0312 28.2188C19.125 28.125 19.125 28.125 19.2188 28.0312L19.3125 27.9375C19.4062 27.8438 19.4062 27.75 19.5 27.6562C19.5 27.5625 19.5938 27.5625 19.5938 27.4688C19.6875 27.375 19.7812 27.2812 19.7812 27.1875C19.875 27.0938 19.875 27 19.9688 26.9063C20.0625 26.8125 20.1562 26.7188 20.25 26.5312C20.3438 26.4375 20.3438 26.3438 20.4375 26.25C20.5312 26.1562 20.625 26.0625 20.7188 25.875C20.8125 25.7813 20.9062 25.6875 20.9062 25.5938C21 25.5 21.0938 25.3125 21.1875 25.2188C21.2812 25.125 21.375 24.9375 21.4688 24.8438C21.5625 24.75 21.6562 24.5625 21.75 24.4688C21.8438 24.375 21.9375 24.1875 22.0312 24.0938C22.125 23.9063 22.2188 23.8125 22.3125 23.625C22.4062 23.5313 22.5 23.3438 22.5938 23.25C22.6875 23.0625 22.7812 22.9688 22.875 22.7812C22.9688 22.5938 23.0625 22.5 23.1562 22.3125C23.25 22.125 23.3438 22.0312 23.4375 21.8438C23.5312 21.6562 23.625 21.5625 23.7188 21.375C23.8125 21.1875 23.9062 21.0938 24 20.9062C24.0938 20.7188 24.1875 20.625 24.2812 20.4375C24.375 20.25 24.4688 20.1562 24.5625 19.9688C24.6562 19.7812 24.75 19.6875 24.8438 19.5C24.9375 19.3125 25.0312 19.125 25.125 19.0312C25.2188 18.8438 25.3125 18.75 25.3125 18.5625C25.3125 18.5625 25.3125 18.5625 25.3125 18.4688L39.1875 23.5313C39.375 23.625 39.6562 23.625 39.8438 23.5313L57.9375 17.0625V48.8438Z" fill="white"/>
<path d="M49.2188 39.75C49.4063 39.8437 49.6875 39.8437 49.875 39.8437C50.4375 39.8437 51 39.6562 51.4688 39.375C52.125 38.9062 52.5938 38.25 52.7813 37.5C52.9688 36.75 52.7813 35.9062 52.4063 35.25C51.9375 34.5937 51.2813 34.125 50.5313 33.9375C48.9375 33.5625 47.25 34.5937 46.875 36.1875C46.6875 36.9375 46.875 37.7812 47.25 38.4375C47.8125 39.0937 48.4688 39.5625 49.2188 39.75ZM48.9375 36.5625C49.0313 36 49.5938 35.7187 50.0625 35.8125C50.3438 35.9062 50.5313 36 50.625 36.2812C50.7188 36.4687 50.8125 36.75 50.7188 37.0312C50.625 37.3125 50.5313 37.5 50.25 37.5937C50.0625 37.6875 49.7813 37.7812 49.5 37.6875C49.2188 37.5937 49.0313 37.5 48.9375 37.2187C48.9375 37.0312 48.9375 36.8437 48.9375 36.5625Z" fill="white"/>
<path d="M10.3125 36.6563L9.65625 37.0313L9.28125 36.375C9 35.9063 8.34375 35.7188 7.875 36.0938C7.40625 36.375 7.21875 37.0313 7.59375 37.5L7.96875 38.1563L7.3125 38.5313C6.84375 38.8125 6.65625 39.4688 7.03125 39.9375C7.125 40.3125 7.5 40.4063 7.78125 40.4063C7.96875 40.4063 8.15625 40.3125 8.34375 40.2188L9 39.8438L9.375 40.5C9.5625 40.7813 9.9375 40.9688 10.2187 40.9688C10.4062 40.9688 10.5937 40.875 10.7812 40.7813C11.25 40.5 11.4375 39.8438 11.0625 39.375L10.6875 38.7188L11.3437 38.3438C11.8125 38.0625 12 37.4063 11.625 36.9375C11.4375 36.4688 10.7812 36.375 10.3125 36.6563Z" fill="white"/>
<path d="M19.9688 39.4687C18.75 39.4687 17.1563 39.2812 16.125 39C15.5625 38.9062 15 39.2812 14.9063 39.8437C14.8125 40.4062 15.1875 40.9687 15.75 41.0625C16.7813 41.25 18.4688 41.5312 19.9688 41.5312C20.5313 41.5312 21 41.0625 21 40.5C21 39.9375 20.5313 39.4687 19.9688 39.4687Z" fill="white"/>
<path d="M27.6563 35.9063C27 36.8438 26.25 37.5938 25.3125 38.1563C25.0313 38.3438 24.6563 38.5313 24.2813 38.7188C23.7188 38.9063 23.5312 39.5626 23.7187 40.1251C23.9063 40.5001 24.2813 40.7813 24.6563 40.7813C24.75 40.7813 24.9375 40.7813 25.0313 40.6876C25.5 40.5001 25.875 40.3126 26.25 40.0313C27.375 39.2813 28.3125 38.4376 29.1563 37.3126C29.5313 36.8438 29.4375 36.1876 28.9688 35.9063C28.6875 35.3438 28.0313 35.4376 27.6563 35.9063Z" fill="white"/>
<path d="M35.1563 29.1562C34.125 29.1562 33.5625 29.4375 33 29.625C31.6875 30.1875 30.5625 31.4063 30.2813 31.7813C29.9063 32.25 30 32.9063 30.375 33.2813C30.5625 33.4688 30.8438 33.5625 31.0313 33.5625C31.3125 33.5625 31.5938 33.4688 31.7813 33.1875C32.25 32.625 33 31.9688 33.75 31.5938C34.3125 31.4063 34.5 31.3125 35.1563 31.2187C35.7188 31.2187 36.1875 30.75 36.1875 30.1875C36.1875 29.625 35.7188 29.1562 35.1563 29.1562Z" fill="white"/>
<path d="M39 30.7499C38.8125 31.3124 39 31.8749 39.5625 32.1562C40.5938 32.6249 42.0937 33.3749 43.2188 34.2187C43.4062 34.3124 43.5938 34.4062 43.7813 34.4062C44.1563 34.4062 44.4375 34.2187 44.625 33.9374C44.9062 33.4687 44.8125 32.8124 44.3438 32.5312C43.0313 31.6874 41.5313 30.8437 40.3125 30.3749C39.8438 29.9999 39.2812 30.2812 39 30.7499Z" fill="white"/>
<path d="M17.9063 14.25C19.6875 14.25 21.0938 12.8438 21.0938 11.0625C21.0938 9.28125 19.6875 7.875 17.9063 7.875C16.125 7.875 14.7188 9.28125 14.7188 11.0625C14.7188 12.8438 16.2188 14.25 17.9063 14.25ZM17.9063 9.9375C18.4688 9.9375 19.0312 10.4063 19.0312 11.0625C19.0312 11.625 18.5625 12.1875 17.9063 12.1875C17.3438 12.1875 16.7812 11.7188 16.7812 11.0625C16.875 10.5 17.3438 9.9375 17.9063 9.9375Z" fill="white"/>
</svg>
