<svg width="60" height="60" viewBox="0 0 60 60" fill="none" xmlns="http://www.w3.org/2000/svg">
<path d="M55.5 36L52.5 34.25C49.25 32.25 49.25 27.5 52.5 25.5L55.5 23.75C58 22.25 58.75 19.25 57.25 17L54.75 12.75C53.25 10.25 50.25 9.5 48 11L45 12.75C41.75 14.75 37.5 12.25 37.5 8.5V5C37.5 2.25 35.25 0 32.5 0H27.5C24.75 0 22.5 2.25 22.5 5V8.25C22.5 12 18.25 14.5 15 12.5L12 11C9.50001 9.5 6.50001 10.5 5.25001 12.75L2.75001 17C1.50001 19.5 2.25001 22.5 4.50001 24L7.50001 25.75C10.75 27.5 10.75 32.5 7.50001 34.25L4.50001 36C2.00001 37.5 1.25001 40.5 2.75001 42.75L5.25001 47C6.75001 49.5 9.75001 50.25 12 48.75L15 47.25C18.25 45.25 22.5 47.75 22.5 51.5V55C22.5 57.75 24.75 60 27.5 60H32.5C35.25 60 37.5 57.75 37.5 55V51.75C37.5 48 41.75 45.5 45 47.5L48 49.25C50.5 50.75 53.5 49.75 54.75 47.5L57.25 43.25C58.5 40.5 57.75 37.5 55.5 36ZM30 40C24.5 40 20 35.5 20 30C20 24.5 24.5 20 30 20C35.5 20 40 24.5 40 30C40 35.5 35.5 40 30 40Z" fill="white"/>
</svg>
