<svg width="90" height="90" viewBox="0 0 90 90" fill="none" xmlns="http://www.w3.org/2000/svg">
<path d="M39.375 74.6719C37.5469 74.6719 35.8594 73.9688 34.5937 72.7031L15.8906 54C13.2187 51.3281 13.2187 47.1094 15.8906 44.4375L40.9219 19.4062C43.1719 17.1562 47.25 15.4688 50.3437 15.4688H66.375C70.0312 15.4688 73.125 18.5625 73.125 22.2187V38.25C73.125 41.3438 71.4375 45.4219 69.1875 47.6719L44.1562 72.7031C42.8906 73.9688 41.2031 74.6719 39.375 74.6719ZM50.3437 19.6875C48.375 19.6875 45.2812 20.9531 43.875 22.3594L18.8437 47.3906C17.8594 48.375 17.8594 49.9219 18.8437 50.9063L37.5469 69.6094C38.5312 70.5938 40.2187 70.5938 41.0625 69.6094L66.0937 44.5781C67.5 43.1719 68.7656 40.2188 68.7656 38.1094V22.0781C68.7656 20.6719 67.6406 19.5469 66.2344 19.5469H50.3437V19.6875Z" fill="white"/>
<path d="M56.25 40.6406C51.75 40.6406 47.9531 36.9844 47.9531 32.3437C47.9531 27.8437 51.6094 24.0469 56.25 24.0469C60.75 24.0469 64.5469 27.7031 64.5469 32.3437C64.5469 36.8437 60.8906 40.6406 56.25 40.6406ZM56.25 27.9844C53.8594 27.9844 51.8906 29.9531 51.8906 32.3437C51.8906 34.7344 53.8594 36.7031 56.25 36.7031C58.6406 36.7031 60.6094 34.7344 60.6094 32.3437C60.6094 29.9531 58.6406 27.9844 56.25 27.9844Z" fill="white"/>
</svg>
